<svg enable-background="new 0 0 24 24" viewBox="0 0 24 24" xmlns="http://www.w3.org/2000/svg"><g id="color"><g><path d="m20.193 15.105c.265-.511.406-1.081.406-1.674 0-1.987-1.598-3.609-3.577-3.646.629-.857.95-1.908.896-2.99-.069-1.386-.746-2.659-1.916-3.533l-3.302-1.967c-.209-.123-.469-.127-.679-.007-.212.12-.342.344-.342.587v1.882c0 1.049-.853 1.902-1.903 1.902-.877 0-1.7.345-2.316.969-.617.626-.949 1.454-.936 2.331.004.292.062.577.166.842-1.844.18-3.29 1.739-3.29 3.629 0 .592.141 1.163.406 1.674-1.525.562-2.606 2.027-2.606 3.719 0 2.193 1.784 3.977 3.977 3.977h13.646c2.193 0 3.977-1.784 3.977-3.977 0-1.692-1.081-3.157-2.607-3.718z" fill="#5d4037"/></g><g><path d="m12 21.327c-1.838 0-3.439-1.181-3.985-2.94-.051-.166-.021-.346.083-.486.103-.14.266-.222.44-.222h6.926c.174 0 .337.083.44.222.103.14.134.32.083.486-.548 1.759-2.149 2.94-3.987 2.94z" fill="#e53935"/></g></g><g id="regular"><g><path d="m19.581 24h-15.162c-2.437 0-4.419-1.982-4.419-4.419 0-1.88 1.201-3.508 2.896-4.131-.295-.568-.451-1.202-.451-1.86 0-2.101 1.606-3.833 3.656-4.032-.116-.295-.18-.613-.185-.937-.015-.975.355-1.894 1.039-2.589s1.599-1.077 2.574-1.077c1.166 0 2.114-.948 2.114-2.114v-2.091c0-.27.145-.519.38-.652.233-.133.522-.13.754.008l3.669 2.186c1.3.971 2.052 2.386 2.129 3.926.061 1.203-.296 2.37-.995 3.322 2.198.041 3.975 1.843 3.975 4.051 0 .658-.156 1.292-.451 1.86 1.695.622 2.896 2.25 2.896 4.13 0 2.437-1.982 4.419-4.419 4.419zm-13.084-12.962c-1.407 0-2.552 1.145-2.552 2.552 0 .686.27 1.33.761 1.813.21.208.278.52.176.796-.104.276-.359.467-.654.486-1.53.102-2.728 1.374-2.728 2.896 0 1.609 1.31 2.919 2.919 2.919h15.162c1.609 0 2.919-1.31 2.919-2.919 0-1.522-1.198-2.794-2.728-2.896-.295-.02-.551-.21-.654-.486s-.034-.588.176-.796c.491-.483.761-1.128.761-1.813 0-1.407-1.145-2.552-2.552-2.552h-1.968c-.355 0-.663-.25-.734-.599-.072-.349.111-.699.438-.84.255-.109.476-.25.657-.417.806-.742 1.236-1.796 1.182-2.891-.056-1.094-.589-2.099-1.465-2.757l-2.469-1.467v.772c0 1.993-1.621 3.614-3.614 3.614-.57 0-1.105.224-1.506.63s-.617.946-.608 1.517c.006.432.24.818.627 1.034.298.166.445.514.359.844s-.384.561-.726.561h-1.179z"/></g><g><path d="m8 15.485c-.827 0-1.5-.673-1.5-1.5s.673-1.5 1.5-1.5 1.5.673 1.5 1.5-.673 1.5-1.5 1.5zm0-1.501v.002l.75-.001z"/></g><g><path d="m16 15.485c-.827 0-1.5-.673-1.5-1.5s.673-1.5 1.5-1.5 1.5.673 1.5 1.5-.673 1.5-1.5 1.5zm0-1.501v.002l.75-.001z"/></g><g><path d="m12 22.006c-2.521 0-4.718-1.621-5.467-4.033-.07-.228-.028-.476.113-.668s.366-.305.604-.305h9.5c.238 0 .463.113.604.305.142.192.184.44.113.668-.749 2.412-2.946 4.033-5.467 4.033zm-3.594-3.506c.755 1.23 2.097 2.006 3.594 2.006s2.839-.775 3.594-2.006z"/></g></g></svg>
